<?xml version="1.0" encoding="UTF-8"?>
<svg version="1.1" xmlns="http://www.w3.org/2000/svg" width="116" height="260">
<path d="M0 0 C38.28 0 76.56 0 116 0 C116 85.8 116 171.6 116 260 C77.72 260 39.44 260 0 260 C0 174.2 0 88.4 0 0 Z " fill="#9B2323" transform="translate(0,0)"/>
<path d="M0 0 C2.27057377 -0.05398987 4.54151288 -0.09278742 6.8125 -0.125 C8.07707031 -0.14820312 9.34164062 -0.17140625 10.64453125 -0.1953125 C14 0 14 0 17 2 C17 2.66 17 3.32 17 4 C16.21625 4.433125 15.4325 4.86625 14.625 5.3125 C11.41710487 7.3747183 10.88059869 8.31749637 10 12 C9.82123421 18.75999514 10.30780254 25.34163678 11 32.0625 C11.09539063 33.02349609 11.19078125 33.98449219 11.2890625 34.97460938 C11.5221192 37.31682923 11.75916349 39.65856955 12 42 C11.9278125 41.01902344 11.855625 40.03804687 11.78125 39.02734375 C11.47456811 34.68719897 11.23149225 30.34471426 11 26 C10.9577832 25.29601074 10.91556641 24.59202148 10.87207031 23.86669922 C10.16291801 11.09286599 10.16291801 11.09286599 13.375 7.125 C17.41323701 3.855951 20.27789655 3.78839545 25.3125 3.75 C26.62863281 3.72421875 27.94476563 3.6984375 29.30078125 3.671875 C33.99159176 4.08795534 36.44383591 5.31987705 39.62133789 8.75048828 C44.17273393 16.17683202 40.71961052 29.70220633 39.93798828 38.26806641 C39.74843725 40.39251498 39.58319235 42.51806936 39.41796875 44.64453125 C38.33183807 57.35087784 38.33183807 57.35087784 34 63 C30.6544183 65.65339238 27.13914223 65.35682261 23 65 C18.8335273 63.55775945 17.37946136 62.64508431 15.125 58.8125 C14.568125 57.4203125 14.568125 57.4203125 14 56 C13.67 57.32 13.34 58.64 13 60 C10.00360494 60.3555045 7.9063291 60.57050164 5 60 C0.54490741 55.92406422 -0.24289155 52.82291461 -0.625 46.875 C-0.67011719 45.75351563 -0.71523438 44.63203125 -0.76171875 43.4765625 C-1.20527699 37.00497501 -3.01367542 30.79494397 -4.640625 24.53515625 C-6.25652539 17.96767538 -7.36873937 11.25890327 -4.6875 4.875 C-4.130625 4.25625 -3.57375 3.6375 -3 3 C-2.01 3 -1.02 3 0 3 C0 2.01 0 1.02 0 0 Z " fill="#D53030" transform="translate(45,117)"/>
<path d="M0 0 C2.34630078 1.55448499 3.24771995 2.59926927 4.38671875 5.1875 C5.65076639 13.96270675 5.41810598 27.12472553 1.38671875 35.1875 C1.06925891 37.03742506 0.78214244 38.89261622 0.51171875 40.75 C-1.75169675 54.41250083 -1.75169675 54.41250083 -6.30078125 58.75 C-10.43616994 60.54460264 -13.13775222 60.2935115 -17.61328125 60.1875 C-17.49210937 59.02814941 -17.3709375 57.86879883 -17.24609375 56.67431641 C-16.79366659 52.33239255 -16.3480118 47.98979475 -15.90429688 43.64697266 C-15.71210536 41.77504022 -15.51812951 39.90329003 -15.32226562 38.03173828 C-15.03945902 35.32631793 -14.76328631 32.62028571 -14.48828125 29.9140625 C-14.35703857 28.67905502 -14.35703857 28.67905502 -14.22314453 27.4190979 C-12.74130338 17.14317283 -12.74130338 17.14317283 -15.14453125 7.53125 C-15.79421875 6.9228125 -16.44390625 6.314375 -17.11328125 5.6875 C-18.29861095 4.53979981 -19.47017651 3.37726207 -20.61328125 2.1875 C-20.61328125 1.5275 -20.61328125 0.8675 -20.61328125 0.1875 C-15.20641355 -2.51593385 -5.60240288 -1.74185321 0 0 Z " fill="#D22F2F" transform="translate(100.61328125,117.8125)"/>
<path d="M0 0 C0.31451716 4.61291833 -0.1380335 6.45116154 -3 10 C-3.71433121 12.64934822 -3.71433121 12.64934822 -4 15 C-2.35 14.34 -0.7 13.68 1 13 C1.15275391 13.89332031 1.15275391 13.89332031 1.30859375 14.8046875 C2.11497019 17.36504659 3.12648366 18.30340543 5.0625 20.125 C8.99842526 24.61022471 8.34396517 28.27170848 8 34 C7.66815206 38.82936716 7.27288285 43.64882408 6.828125 48.46899414 C6.62450856 50.6928675 6.43300694 52.91757447 6.2421875 55.14257812 C6.11270983 56.57819109 5.98252595 58.01374057 5.8515625 59.44921875 C5.73635254 60.73143311 5.62114258 62.01364746 5.50244141 63.3347168 C4.98800833 67.08747857 4.12748583 70.39396422 3 74 C9.50722569 73.11052941 9.50722569 73.11052941 15.4375 70.5 C19.07392861 64.68171423 20.16819642 58.03851464 20.75390625 51.296875 C21.28231772 46.3650346 22.42487489 41.50200412 23.53515625 36.671875 C24.53734347 30.91140391 26.00529151 22.18995604 22.73046875 16.98046875 C20.96629817 15.47947193 20.96629817 15.47947193 18 14 C17.34 13.34 16.68 12.68 16 12 C20.8434046 12.41514897 22.81587829 14.46208699 26 18 C26.33 18.33 26.66 18.66 27 19 C27.57479064 28.12981419 28.16143253 40.67713495 24 49 C23.78982548 50.81873795 23.58352356 52.6380852 23.4050293 54.46020508 C22.70966538 61.38028575 22.02243475 67.13873794 18 73 C13.35935889 76.4282937 9.43971012 76.42427107 3.83984375 76.59375 C0.62605733 77.05349386 -0.46370516 78.08647855 -3 80 C-5.65625 80.36328125 -5.65625 80.36328125 -8.5 80.3125 C-9.90765625 80.30669922 -9.90765625 80.30669922 -11.34375 80.30078125 C-14.02087334 79.9976364 -15.69965635 79.36176004 -18 78 C-18 77.34 -18 76.68 -18 76 C-19.485 76.495 -19.485 76.495 -21 77 C-26.39888643 77.34831525 -29.58870745 77.43100532 -34 74 C-34.721875 73.443125 -35.44375 72.88625 -36.1875 72.3125 C-40.12799381 67.28497342 -40.47192129 59.58636875 -41.4375 53.375 C-42.52656298 46.54733132 -43.84726249 39.84149752 -45.44921875 33.11328125 C-46.05504996 29.68883107 -46.09167794 26.47066503 -46 23 C-45.34 22.67 -44.68 22.34 -44 22 C-43.81824219 23.19753906 -43.63648438 24.39507812 -43.44921875 25.62890625 C-41.88436205 35.81519789 -40.13762858 45.91621281 -38 56 C-37.76410156 57.21300781 -37.52820312 58.42601562 -37.28515625 59.67578125 C-37.04667969 60.83464844 -36.80820312 61.99351562 -36.5625 63.1875 C-36.35753906 64.21230469 -36.15257812 65.23710937 -35.94140625 66.29296875 C-34.82770333 69.4954423 -33.68493541 70.94456987 -31 73 C-28.65961239 73.68533632 -28.65961239 73.68533632 -26.25 73.75 C-24.8475 73.8325 -23.445 73.915 -22 74 C-22 70.37 -22 66.74 -22 63 C-21.67 63 -21.34 63 -21 63 C-20.85304688 63.90492188 -20.85304688 63.90492188 -20.703125 64.828125 C-19.79821328 69.66472214 -19.17748667 72.96182788 -15 76 C-10.6535436 77.4488188 -5.29649951 77.90955534 -1 76 C3.58202392 68.35755427 3.44821106 57.79138704 4.125 49.125 C4.2480249 47.55335083 4.2480249 47.55335083 4.37353516 45.94995117 C4.59689653 42.96740627 4.80443387 39.98448632 5 37 C5.04962891 36.24638184 5.09925781 35.49276367 5.15039062 34.71630859 C5.76599071 27.6036499 5.76599071 27.6036499 3.1640625 21.23046875 C-0.54546808 17.40710781 -4.26457707 17.78288117 -9.375 17.6875 C-10.68210938 17.65011719 -11.98921875 17.61273438 -13.3359375 17.57421875 C-17.51361607 18.0596846 -19.07664569 19.04927346 -22 22 C-25.08108162 28.16216324 -23.13781322 38.9447086 -22.22265625 45.66015625 C-21.73811858 50.75205211 -21.92892609 55.89057577 -22 61 C-22.33 61 -22.66 61 -23 61 C-23.50835545 56.68844272 -24.00516054 52.37562773 -24.5 48.0625 C-24.64308594 46.85013672 -24.78617188 45.63777344 -24.93359375 44.38867188 C-27.15477655 24.87399443 -27.15477655 24.87399443 -23 19 C-20.3125 17.625 -20.3125 17.625 -18 17 C-19.07760678 15.38516466 -19.07760678 15.38516466 -21 14 C-26.77218196 13.20408423 -33.76578651 12.50732172 -38.75 16 C-39.4925 16.66 -40.235 17.32 -41 18 C-41.66 18 -42.32 18 -43 18 C-42 15 -42 15 -39.80859375 13.37109375 C-36.78295193 11.8940419 -34.39504618 11.44422022 -31.0625 11.0625 C-25.98666309 10.33207469 -23.23202508 8.91539506 -19 6 C-16.890625 5.6953125 -16.890625 5.6953125 -14.5625 5.5625 C-8.61112273 5.18113012 -5.50087606 0 0 0 Z " fill="#6E1615" transform="translate(80,104)"/>
<path d="M0 0 C1.22589844 0.01353516 1.22589844 0.01353516 2.4765625 0.02734375 C3.41628906 0.04474609 3.41628906 0.04474609 4.375 0.0625 C4.88333591 1.30913331 5.38131145 2.55999387 5.875 3.8125 C6.1534375 4.50859375 6.431875 5.2046875 6.71875 5.921875 C7.375 8.0625 7.375 8.0625 7.375 12.0625 C4.625 14.875 4.625 14.875 1.375 17.0625 C-0.9375 17 -0.9375 17 -2.625 16.0625 C-2.955 15.4025 -3.285 14.7425 -3.625 14.0625 C-5.64963255 13.41036708 -5.64963255 13.41036708 -7.625 13.0625 C-7.295 13.908125 -6.965 14.75375 -6.625 15.625 C-6.625 19.0625 -6.625 19.0625 -8.12890625 20.80859375 C-9.53645869 22.00781774 -10.97197629 23.17477417 -12.4296875 24.3125 C-14.46761134 25.93703715 -16.09149187 27.61622903 -17.8125 29.5625 C-20.625 32.0625 -20.625 32.0625 -23.375 32 C-24.81217034 31.40117903 -26.23243542 30.75878229 -27.625 30.0625 C-26.73210952 24.94466189 -23.38413859 22.34465313 -19.8125 18.8125 C-18.86793945 17.83796875 -18.86793945 17.83796875 -17.90429688 16.84375 C-17.29005859 16.23015625 -16.67582031 15.6165625 -16.04296875 14.984375 C-15.48375732 14.42331055 -14.9245459 13.86224609 -14.34838867 13.28417969 C-12.625 12.0625 -12.625 12.0625 -8.625 12.0625 C-8.50382812 11.28003906 -8.38265625 10.49757813 -8.2578125 9.69140625 C-8.09023438 8.67949219 -7.92265625 7.66757813 -7.75 6.625 C-7.58757813 5.61566406 -7.42515625 4.60632813 -7.2578125 3.56640625 C-7.04898437 2.74011719 -6.84015625 1.91382812 -6.625 1.0625 C-4.21954362 -0.14022819 -2.67503047 -0.03821472 0 0 Z " fill="#C04D2A" transform="translate(38.625,94.9375)"/>
<path d="M0 0 C4.8434046 0.41514897 6.81587829 2.46208699 10 6 C10.495 6.495 10.495 6.495 11 7 C11.57479064 16.12981419 12.16143253 28.67713495 8 37 C7.78982548 38.81873795 7.58352356 40.6380852 7.4050293 42.46020508 C6.70966538 49.38028575 6.02243475 55.13873794 2 61 C-2.64064111 64.4282937 -6.56028988 64.42427107 -12.16015625 64.59375 C-15.37394267 65.05349386 -16.46370516 66.08647855 -19 68 C-21.65625 68.36328125 -21.65625 68.36328125 -24.5 68.3125 C-25.90765625 68.30669922 -25.90765625 68.30669922 -27.34375 68.30078125 C-30.02087334 67.9976364 -31.69965635 67.36176004 -34 66 C-34 65.34 -34 64.68 -34 64 C-35.485 64.495 -35.485 64.495 -37 65 C-42.39888643 65.34831525 -45.58870745 65.43100532 -50 62 C-50.721875 61.443125 -51.44375 60.88625 -52.1875 60.3125 C-56.12799381 55.28497342 -56.47192129 47.58636875 -57.4375 41.375 C-58.52656298 34.54733132 -59.84726249 27.84149752 -61.44921875 21.11328125 C-62.05504996 17.68883107 -62.09167794 14.47066503 -62 11 C-61.34 10.67 -60.68 10.34 -60 10 C-59.81824219 11.19753906 -59.63648438 12.39507812 -59.44921875 13.62890625 C-57.88436205 23.81519789 -56.13762858 33.91621281 -54 44 C-53.76410156 45.21300781 -53.52820312 46.42601562 -53.28515625 47.67578125 C-53.04667969 48.83464844 -52.80820312 49.99351562 -52.5625 51.1875 C-52.35753906 52.21230469 -52.15257812 53.23710937 -51.94140625 54.29296875 C-50.82770333 57.4954423 -49.68493541 58.94456987 -47 61 C-44.65961239 61.68533632 -44.65961239 61.68533632 -42.25 61.75 C-40.14625 61.87375 -40.14625 61.87375 -38 62 C-38 58.37 -38 54.74 -38 51 C-37.67 51 -37.34 51 -37 51 C-36.90203125 51.60328125 -36.8040625 52.2065625 -36.703125 52.828125 C-35.79821328 57.66472214 -35.17748667 60.96182788 -31 64 C-26.60864485 65.46378505 -21.36370207 65.84618165 -17 64 C-16.67 63.01 -16.34 62.02 -16 61 C-14.89591797 61.05220703 -14.89591797 61.05220703 -13.76953125 61.10546875 C-9.62726098 61.22037981 -5.97565703 61.30489282 -2 60.0625 C3.02428498 54.88120612 3.48296553 46.84879186 4.53125 40 C5.3344012 34.8598323 6.36829201 29.75443265 7.53125 24.68359375 C8.53773842 18.92144752 10.00686244 10.19245502 6.73046875 4.98046875 C4.96629817 3.47947193 4.96629817 3.47947193 2 2 C1.34 1.34 0.68 0.68 0 0 Z " fill="#500F0F" transform="translate(96,116)"/>
<path d="M0 0 C0 0.99 0 1.98 0 3 C3.55780196 2.39009109 6.6828589 1.4216319 10 0 C10 0.66 10 1.32 10 2 C9.01 2.33 8.02 2.66 7 3 C3.81809447 7.80467734 4.47923233 13.71155694 5.34765625 19.1953125 C5.84899325 21.47871294 6.41192312 23.73733835 7 26 C8.70795267 32.68367192 10.10666702 39.02939233 10.4375 45.9375 C10.7829755 51.22839331 11.0335707 54.33868065 15 58 C17.77107038 58.7735684 20.08611618 58.90287054 23 59 C23.33 58.34 23.66 57.68 24 57 C23.67 58.32 23.34 59.64 23 61 C19.11963108 61.06036129 15.5373879 60.9526549 12.171875 58.8671875 C4.2646845 50.92006169 4.48483992 36.12144851 3.08911133 25.54833984 C2.34056785 19.94465279 1.29665345 14.50382086 0 9 C-0.61359375 9.17402344 -1.2271875 9.34804687 -1.859375 9.52734375 C-4.2719798 10.06005393 -5.67526878 9.74723504 -8 9 C-8 6.36 -8 3.72 -8 1 C-5.23735711 0.40267181 -2.83967231 0 0 0 Z " fill="#A02C25" transform="translate(35,118)"/>
<path d="M0 0 C0.66 0.33 1.32 0.66 2 1 C1.51144531 1.50015625 1.02289063 2.0003125 0.51953125 2.515625 C-1.54564231 5.89210414 -1.40624274 8.91518755 -1.3125 12.75 C-1.303396 13.49934814 -1.29429199 14.24869629 -1.28491211 15.02075195 C-1.14497815 21.4637983 -0.41286475 27.75186094 0.50390625 34.125 C1.13837926 39.08088368 1.33187733 44.01943671 1.4609375 49.01171875 C2.11389978 52.63140094 3.60402758 54.27470069 6 57 C6 57.66 6 58.32 6 59 C2.22699642 57.9802693 1.19793856 57.34127338 -0.8125 53.875 C-1.204375 52.92625 -1.59625 51.9775 -2 51 C-2.66 51 -3.32 51 -4 51 C-4.95261487 46.23692563 -5.08333357 41.8333472 -5 37 C-4.67 37 -4.34 37 -4 37 C-4.0721875 36.01902344 -4.144375 35.03804687 -4.21875 34.02734375 C-4.52543189 29.68719897 -4.76850775 25.34471426 -5 21 C-5.0422168 20.29601074 -5.08443359 19.59202148 -5.12792969 18.86669922 C-5.83734885 6.0880592 -5.83734885 6.0880592 -2.5 2.0625 C-1.675 1.381875 -0.85 0.70125 0 0 Z " fill="#B32C2C" transform="translate(61,122)"/>
<path d="M0 0 C2.46800047 1.15173355 4.04783565 2.04783565 6 4 C6 7 6 7 4.4609375 8.61328125 C3.42839844 9.45439453 3.42839844 9.45439453 2.375 10.3125 C-0.3642725 12.578318 -2.82141098 14.84973318 -5.1875 17.5 C-8 20 -8 20 -10.75 19.9375 C-12.18717034 19.33867903 -13.60743542 18.69628229 -15 18 C-14.41889329 14.57245533 -13.31446376 12.95461339 -10.83984375 10.546875 C-10.21142578 9.928125 -9.58300781 9.309375 -8.93554688 8.671875 C-8.27619141 8.03765625 -7.61683594 7.4034375 -6.9375 6.75 C-6.27427734 6.1003125 -5.61105469 5.450625 -4.92773438 4.78125 C-3.29170683 3.1805324 -1.64909088 1.58723807 0 0 Z " fill="#DCD2D2" transform="translate(26,107)"/>
<path d="M0 0 C0.99 0 1.98 0 3 0 C3 6.27 3 12.54 3 19 C0.03 19 -2.94 19 -6 19 C-8 17 -8 17 -8.265625 14.90625 C-8.25789063 13.71515625 -8.25789063 13.71515625 -8.25 12.5 C-8.25515625 11.7059375 -8.2603125 10.911875 -8.265625 10.09375 C-8 8 -8 8 -6 6 C-2.875 5.875 -2.875 5.875 0 6 C0 4.02 0 2.04 0 0 Z " fill="#FBF4F4" transform="translate(94,37)"/>
<path d="M0 0 C0.33 0.66 0.66 1.32 1 2 C1.66 2.309375 2.32 2.61875 3 2.9375 C5 4 5 4 6 7 C3.5248518 9.50400643 1.04423106 12.00251906 -1.4375 14.5 C-2.49807617 15.57314453 -2.49807617 15.57314453 -3.58007812 16.66796875 C-4.25361328 17.34472656 -4.92714844 18.02148438 -5.62109375 18.71875 C-6.2442749 19.34716797 -6.86745605 19.97558594 -7.50952148 20.62304688 C-9 22 -9 22 -10 22 C-10.96406027 16.46200936 -11.08192453 12.54506416 -7.7734375 7.8203125 C-5.33305991 5.05822872 -2.70787906 2.49995263 0 0 Z " fill="#585858" transform="translate(10,123)"/>
<path d="M0 0 C2.3125 2.3125 2.3125 2.3125 4 5 C3.81740836 8.10405796 2.77223991 9.34164013 1 12 C1.66 12.33 2.32 12.66 3 13 C1.68 13.99 0.36 14.98 -1 16 C-1 15.34 -1 14.68 -1 14 C-3.64 13.34 -6.28 12.68 -9 12 C-9.82214706 8.07196405 -10.48143173 4.80939588 -9 1 C-5.81014579 -0.89667007 -3.40709339 -1.64859358 0 0 Z " fill="#B93F30" transform="translate(18,100)"/>
<path d="M0 0 C0.99 0 1.98 0 3 0 C3.33 2.64 3.66 5.28 4 8 C4.66 7.01 5.32 6.02 6 5 C6.99 5 7.98 5 9 5 C9.33 6.65 9.66 8.3 10 10 C10.66 6.7 11.32 3.4 12 0 C12.99 0 13.98 0 15 0 C14.69012383 2.25036286 14.37700182 4.50027894 14.0625 6.75 C13.88847656 8.00296875 13.71445312 9.2559375 13.53515625 10.546875 C13.13950662 13.09982593 12.69553578 15.5186291 12 18 C11.01 18 10.02 18 9 18 C8.34 15.69 7.68 13.38 7 11 C6.34 13.31 5.68 15.62 5 18 C4.01 18 3.02 18 2 18 C1.66191314 15.93827387 1.32972639 13.8755797 1 11.8125 C0.814375 10.66394531 0.62875 9.51539063 0.4375 8.33203125 C0.06510523 5.49584607 -0.08596021 2.85280436 0 0 Z " fill="#FAEBEB" transform="translate(12,38)"/>
<path d="M0 0 C0.66773568 6.84429072 -2.30945136 10.46417704 -6 16 C-9.125 16.1875 -9.125 16.1875 -12 16 C-11.48638584 9.57982303 -9.73763464 5.48875876 -4.9375 1.125 C-3 0 -3 0 0 0 Z " fill="#0B7E54" transform="translate(80,104)"/>
<path d="M0 0 C6.0546875 -0.1953125 6.0546875 -0.1953125 8 0 C10 2 10 2 10.1953125 4.6015625 C10.17210938 5.59929688 10.14890625 6.59703125 10.125 7.625 C10.10695313 8.62789062 10.08890625 9.63078125 10.0703125 10.6640625 C10.03550781 11.82035156 10.03550781 11.82035156 10 13 C6.7 13 3.4 13 0 13 C-0.33 11.02 -0.66 9.04 -1 7 C2.06117568 4.37613513 2.73173127 4 7 4 C7 3.34 7 2.68 7 2 C4.69 2 2.38 2 0 2 C0 1.34 0 0.68 0 0 Z " fill="#FBF3F3" transform="translate(58,43)"/>
<path d="M0 0 C7.75 -0.125 7.75 -0.125 10 1 C10.4140625 3.72265625 10.4140625 3.72265625 10.625 7.0625 C10.69976562 8.16722656 10.77453125 9.27195312 10.8515625 10.41015625 C10.90054688 11.26480469 10.94953125 12.11945312 11 13 C9.37536158 13.05395478 7.75021459 13.09277195 6.125 13.125 C5.22007813 13.14820313 4.31515625 13.17140625 3.3828125 13.1953125 C1 13 1 13 -1 11 C-0.44444444 6.44444444 -0.44444444 6.44444444 1 5 C3.33297433 4.95907063 5.66705225 4.95758277 8 5 C8 4.01 8 3.02 8 2 C5.36 2.33 2.72 2.66 0 3 C0 2.01 0 1.02 0 0 Z " fill="#F9E3E3" transform="translate(72,15)"/>
<path d="M0 0 C0.94406738 2.98529414 1.73142857 5.87382854 2 9 C0.375 11.625 0.375 11.625 -2 13 C-4.25 12.75 -4.25 12.75 -6 12 C-6 11.01 -6 10.02 -6 9 C-6.99 9 -7.98 9 -9 9 C-8.67 6.36 -8.34 3.72 -8 1 C-2.25 0 -2.25 0 0 0 Z " fill="#EBB405" transform="translate(42,97)"/>
<path d="M0 0 C3.3 0 6.6 0 10 0 C10 0.99 10 1.98 10 3 C9.01 3 8.02 3 7 3 C7 7.29 7 11.58 7 16 C7.99 16 8.98 16 10 16 C10 16.66 10 17.32 10 18 C6.7 18 3.4 18 0 18 C0 17.34 0 16.68 0 16 C1.32 16 2.64 16 4 16 C4 11.71 4 7.42 4 3 C2.68 3 1.36 3 0 3 C0 2.01 0 1.02 0 0 Z " fill="#F8DDDD" transform="translate(14,10)"/>
<path d="M0 0 C2 1.3125 2 1.3125 4 3 C4 6 4 6 2.4609375 7.61328125 C1.42839844 8.45439453 1.42839844 8.45439453 0.375 9.3125 C-2.3642725 11.578318 -4.82141098 13.84973318 -7.1875 16.5 C-10 19 -10 19 -12.875 18.875 C-13.926875 18.441875 -13.926875 18.441875 -15 18 C-12.46459498 15.45089009 -9.91715144 12.920417 -7.32421875 10.4296875 C-6.45410156 9.58664063 -5.58398438 8.74359375 -4.6875 7.875 C-3.80449219 7.02679688 -2.92148437 6.17859375 -2.01171875 5.3046875 C0.32880007 3.13318016 0.32880007 3.13318016 0 0 Z " fill="#D7D4D4" transform="translate(28,108)"/>
<path d="M0 0 C0.33 0.99 0.66 1.98 1 3 C-0.98 3 -2.96 3 -5 3 C-5 3.99 -5 4.98 -5 6 C-4.21625 5.95875 -3.4325 5.9175 -2.625 5.875 C0 6 0 6 2 8 C1.44444444 12.55555556 1.44444444 12.55555556 0 14 C-2.67058851 14.14115161 -5.32432238 14.04247107 -8 14 C-8 13.01 -8 12.02 -8 11 C-5.69 11.33 -3.38 11.66 -1 12 C-1.33 11.01 -1.66 10.02 -2 9 C-2.825 8.71125 -3.65 8.4225 -4.5 8.125 C-5.325 7.75375 -6.15 7.3825 -7 7 C-7.8125 4.375 -7.8125 4.375 -8 2 C-4.77208445 -0.1519437 -3.71599191 -0.20086443 0 0 Z " fill="#F2C0C0" transform="translate(51,14)"/>
<path d="M0 0 C0 1.65 0 3.3 0 5 C1.65 5 3.3 5 5 5 C5 5.66 5 6.32 5 7 C3.35 7 1.7 7 0 7 C0 9.97 0 12.94 0 16 C1.65 16 3.3 16 5 16 C5 16.66 5 17.32 5 18 C2.125 18.125 2.125 18.125 -1 18 C-3 16 -3 16 -3.1953125 13.8359375 C-3.17210937 13.02382813 -3.14890625 12.21171875 -3.125 11.375 C-3.10695312 10.55773438 -3.08890625 9.74046875 -3.0703125 8.8984375 C-3.03550781 7.95871094 -3.03550781 7.95871094 -3 7 C-3.99 7 -4.98 7 -6 7 C-6 6.34 -6 5.68 -6 5 C-5.01 5 -4.02 5 -3 5 C-3 3.68 -3 2.36 -3 1 C-1 0 -1 0 0 0 Z " fill="#F4C8C8" transform="translate(63,10)"/>
<path d="M0 0 C1.23076923 5.41538462 1.23076923 5.41538462 0.0625 8.375 C-0.288125 8.91125 -0.63875 9.4475 -1 10 C-3.31 9.67 -5.62 9.34 -8 9 C-8 6.36 -8 3.72 -8 1 C-5.23735711 0.40267181 -2.83967231 0 0 0 Z " fill="#EBB02B" transform="translate(35,118)"/>
<path d="M0 0 C1.98 0 3.96 0 6 0 C6 5.61 6 11.22 6 17 C7.32 17 8.64 17 10 17 C10 17.66 10 18.32 10 19 C7.625 19.125 7.625 19.125 5 19 C3 17 3 17 2.8046875 13.7421875 C2.82789062 12.46601563 2.85109375 11.18984375 2.875 9.875 C2.89304687 8.59367187 2.91109375 7.31234375 2.9296875 5.9921875 C2.95289062 5.00476563 2.97609375 4.01734375 3 3 C1.68 3 0.36 3 -1 3 C-0.67 2.01 -0.34 1.02 0 0 Z " fill="#F0C3C3" transform="translate(101,9)"/>
<path d="M0 0 C6.0546875 -0.1953125 6.0546875 -0.1953125 8 0 C10 2 10 2 10.1953125 4.6015625 C10.17210937 5.59929688 10.14890625 6.59703125 10.125 7.625 C10.10695313 8.62789062 10.08890625 9.63078125 10.0703125 10.6640625 C10.03550781 11.82035156 10.03550781 11.82035156 10 13 C9.01 13 8.02 13 7 13 C7 9.37 7 5.74 7 2 C5.68 2.33 4.36 2.66 3 3 C2.67 6.3 2.34 9.6 2 13 C1.34 13 0.68 13 0 13 C0 8.71 0 4.42 0 0 Z " fill="#F5CCCC" transform="translate(29,15)"/>
<path d="M0 0 C3.3 0 6.6 0 10 0 C8.80655062 4.77379752 7.20354235 6.38574709 4 10 C6.97 10.495 6.97 10.495 10 11 C10 11.66 10 12.32 10 13 C6.7 13 3.4 13 0 13 C1.19344938 8.22620248 2.79645765 6.61425291 6 3 C3.03 2.505 3.03 2.505 0 2 C0 1.34 0 0.68 0 0 Z " fill="#F8E4E4" transform="translate(43,43)"/>
<path d="M0 0 C2.97011097 5.46689748 2.35465842 10.23675874 0.8125 16.125 C-0.6211131 20.64639517 -2.3401587 23.03256111 -6 26 C-7.32 25.34 -8.64 24.68 -10 24 C-8.8553125 23.5359375 -8.8553125 23.5359375 -7.6875 23.0625 C-1.17977831 18.06820196 -1.09500014 7.61347154 0 0 Z " fill="#5D1212" transform="translate(101,153)"/>
<path d="M0 0 C0.99 0.33 1.98 0.66 3 1 C-1.68354127 6.64426769 -6.6207646 12.0058046 -12 17 C-12.33 17 -12.66 17 -13 17 C-13.40625 14.89453125 -13.40625 14.89453125 -13 12 C-11.0971142 9.5992839 -8.82234878 7.67429111 -6.5 5.6875 C-5.56994141 4.86282227 -5.56994141 4.86282227 -4.62109375 4.02148438 C-3.0916638 2.66852711 -1.54722585 1.33256951 0 0 Z " fill="#373232" transform="translate(13,128)"/>
<path d="M0 0 C1.98 0.66 3.96 1.32 6 2 C6 3.65 6 5.3 6 7 C5.67 6.01 5.34 5.02 5 4 C-1.64964281 4.9332832 -4.2488568 6.79872991 -8.390625 12.0234375 C-10.32897564 14.40403319 -12.52324921 16.1987267 -15 18 C-15.3125 15.6875 -15.3125 15.6875 -15 13 C-13.34386197 11.98265807 -11.6748204 10.98628312 -10 10 C-8.18488512 8.31737526 -6.41444657 6.58549848 -4.6875 4.8125 C-3.36298828 3.46091797 -3.36298828 3.46091797 -2.01171875 2.08203125 C-1.34785156 1.39496094 -0.68398438 0.70789063 0 0 Z " fill="#A55250" transform="translate(30,114)"/>
<path d="M0 0 C0.99 0 1.98 0 3 0 C3 5.28 3 10.56 3 16 C4.32 16 5.64 16 7 16 C7 16.66 7 17.32 7 18 C4.625 18.125 4.625 18.125 2 18 C0 16 0 16 -0.1953125 13.8359375 C-0.17210937 13.02382813 -0.14890625 12.21171875 -0.125 11.375 C-0.10695313 10.55773438 -0.08890625 9.74046875 -0.0703125 8.8984375 C-0.03550781 7.95871094 -0.03550781 7.95871094 0 7 C-0.99 7 -1.98 7 -3 7 C-2.67 6.01 -2.34 5.02 -2 4 C-1.34 3.67 -0.68 3.34 0 3 C0 2.01 0 1.02 0 0 Z " fill="#F1C2C2" transform="translate(32,38)"/>
<path d="M0 0 C0.99 0.33 1.98 0.66 3 1 C3 2.32 3 3.64 3 5 C3.66 5 4.32 5 5 5 C5.103125 5.78375 5.20625 6.5675 5.3125 7.375 C5.77595022 10.33045181 5.77595022 10.33045181 9 12 C11.0492094 12.45139459 11.0492094 12.45139459 13.1875 12.625 C14.445625 12.74875 15.70375 12.8725 17 13 C17 13.33 17 13.66 17 14 C13.37 14 9.74 14 6 14 C6 13.34 6 12.68 6 12 C2.28400809 11.79913557 1.22791555 11.8480563 -2 14 C-1.71125 13.319375 -1.4225 12.63875 -1.125 11.9375 C0.12597355 8.67106907 1.07447955 5.37153877 2 2 C0.35 2.33 -1.3 2.66 -3 3 C-2.01 2.01 -1.02 1.02 0 0 Z " fill="#3C2019" transform="translate(78,102)"/>
<path d="M0 0 C0.33 0.99 0.66 1.98 1 3 C1.66 3.33 2.32 3.66 3 4 C3 4.99 3 5.98 3 7 C2.01 7 1.02 7 0 7 C0 7.99 0 8.98 0 10 C-2.97 9.505 -2.97 9.505 -6 9 C-6.36521739 3.52173913 -6.36521739 3.52173913 -4.6875 1.125 C-3 0 -3 0 0 0 Z " fill="#EDB247" transform="translate(17,101)"/>
<path d="M0 0 C0.66 0.33 1.32 0.66 2 1 C4.42166127 10.20231284 2.97809085 19.86899136 1 29 C0.67 29 0.34 29 0 29 C-0.95261487 24.23692563 -1.08333357 19.8333472 -1 15 C-0.67 15 -0.34 15 0 15 C0 10.05 0 5.1 0 0 Z " fill="#A22929" transform="translate(57,144)"/>
<path d="M0 0 C0.33 0 0.66 0 1 0 C1 3.63 1 7.26 1 11 C-1.64 10.67 -4.28 10.34 -7 10 C-7.625 8.125 -7.625 8.125 -8 6 C-6 4 -6 4 -3.375 3.875 C-2.59125 3.91625 -1.8075 3.9575 -1 4 C-0.67 2.68 -0.34 1.36 0 0 Z " fill="#EFC8C8" transform="translate(67,45)"/>
<path d="M0 0 C3.3 0 6.6 0 10 0 C9.67 0.99 9.34 1.98 9 3 C7.35 3 5.7 3 4 3 C3.67 6.3 3.34 9.6 3 13 C2.01 13 1.02 13 0 13 C0 8.71 0 4.42 0 0 Z " fill="#F3D6D6" transform="translate(73,43)"/>
<path d="M0 0 C-0.33 2.31 -0.66 4.62 -1 7 C-4.34373475 6.44271087 -7.03312999 5.64826111 -10 4 C-9.67 3.01 -9.34 2.02 -9 1 C-6.04335481 -0.4783226 -3.25770263 -0.06032783 0 0 Z " fill="#982626" transform="translate(68,112)"/>
<path d="M0 0 C1.67542976 0.28604898 3.34385343 0.61781233 5 1 C5 3.31 5 5.62 5 8 C3.34385343 8.38218767 1.67542976 8.71395102 0 9 C-1 8 -1 8 -1.125 4.5 C-1 1 -1 1 0 0 Z " fill="#C23232" transform="translate(89,45)"/>
<path d="M0 0 C1.98 0 3.96 0 6 0 C6.33 4.95 6.66 9.9 7 15 C8.32 15.33 9.64 15.66 11 16 C11 16.66 11 17.32 11 18 C9.02 18 7.04 18 5 18 C3.46733418 14.93466836 3.89723529 11.73245728 3.9375 8.375 C3.94201172 7.66859375 3.94652344 6.9621875 3.95117188 6.234375 C3.96296125 4.48954725 3.98089676 2.744763 4 1 C2.68 0.67 1.36 0.34 0 0 Z " fill="#FEFDFD" transform="translate(86,10)"/>
<path d="M0 0 C0.33 2.64 0.66 5.28 1 8 C-2.02419525 7.41196203 -5.01758453 6.77321882 -8 6 C-8 4.35 -8 2.7 -8 1 C-2.25 0 -2.25 0 0 0 Z " fill="#F0B734" transform="translate(42,97)"/>
<path d="M0 0 C2.625 0.375 2.625 0.375 5 1 C5 1.66 5 2.32 5 3 C9.62 2.67 14.24 2.34 19 2 C16.009745 4.990255 12.58105892 4.42644639 8.5625 4.5625 C2.6974584 4.72054356 2.6974584 4.72054356 -3 6 C-2.42655063 3.13275314 -2.1385485 2.1385485 0 0 Z " fill="#741717" transform="translate(79,113)"/>
<path d="M0 0 C0.99 0 1.98 0 3 0 C3 6.27 3 12.54 3 19 C2.67 19 2.34 19 2 19 C1.67 15.04 1.34 11.08 1 7 C-3.54170996 8.90884692 -3.54170996 8.90884692 -8 11 C-7.125 7.125 -7.125 7.125 -6 6 C-4.00041636 5.95919217 -1.99954746 5.95745644 0 6 C0 4.02 0 2.04 0 0 Z " fill="#EBBCBD" transform="translate(94,37)"/>
<path d="M0 0 C0.33 0 0.66 0 1 0 C3.04937325 7.78273888 4.49155247 14.93489832 4 23 C1.87515291 21.27961442 1.07071001 20.32926035 0.48828125 17.6171875 C0.43027344 16.71226562 0.37226562 15.80734375 0.3125 14.875 C0.24804688 13.90691406 0.18359375 12.93882812 0.1171875 11.94140625 C-0.0417186 7.95286311 -0.06543084 3.99128102 0 0 Z " fill="#B42C2C" transform="translate(41,144)"/>
<path d="M0 0 C-0.44053685 4.84590538 -2.74505877 8.48141867 -6 12 C-6.66 12 -7.32 12 -8 12 C-7.74297526 7.6305794 -7.39976667 5.48177009 -4.5625 2.0625 C-2 0 -2 0 0 0 Z " fill="#1EA776" transform="translate(80,106)"/>
<path d="M0 0 C3.67582287 2.45054858 3.6897383 3.9054322 5 8 C5.97581759 9.35113205 6.97029741 10.68946944 8 12 C8 12.66 8 13.32 8 14 C4.48544441 13.05012011 3.22444814 12.34054201 1.1875 9.25 C-0.03316827 5.90922369 -0.25163055 3.5228277 0 0 Z " fill="#9E2727" transform="translate(59,167)"/>
<path d="M0 0 C2.33649429 3.50474143 3.12415417 5.23187506 3.31640625 9.3515625 C3.35830078 10.20234375 3.40019531 11.053125 3.44335938 11.9296875 C3.48267578 12.81914062 3.52199219 13.70859375 3.5625 14.625 C3.60568359 15.5221875 3.64886719 16.419375 3.69335938 17.34375 C3.79956861 19.56234283 3.90161194 21.7810488 4 24 C-0.50697511 17.23953733 -0.26368413 7.91052393 0 0 Z " fill="#972525" transform="translate(38,136)"/>
<path d="M0 0 C0.33 0.66 0.66 1.32 1 2 C0.01 3.32 -0.98 4.64 -2 6 C-2 5.01 -2 4.02 -2 3 C-5.63 3.66 -9.26 4.32 -13 5 C-13 5.66 -13 6.32 -13 7 C-13.99 6.67 -14.98 6.34 -16 6 C-11.93941063 2.68741393 -9.57477312 0.95747731 -4.375 0.4375 C-3.55773437 0.35371094 -2.74046875 0.26992187 -1.8984375 0.18359375 C-0.95871094 0.09271484 -0.95871094 0.09271484 0 0 Z " fill="#47110F" transform="translate(70,109)"/>
<path d="M0 0 C0.33 0 0.66 0 1 0 C2.19287411 3.87684087 3 6.91621923 3 11 C0.25 13.8125 0.25 13.8125 -3 16 C-5.375 15.8125 -5.375 15.8125 -7 15 C-6.67 14.34 -6.34 13.68 -6 13 C-5.01 13.33 -4.02 13.66 -3 14 C-2.34 12.68 -1.68 11.36 -1 10 C-0.34 10 0.32 10 1 10 C0.67 9.01 0.34 8.02 0 7 C-0.03954234 4.66700175 -0.04401732 2.33291811 0 0 Z " fill="#B84126" transform="translate(43,96)"/>
<path d="M0 0 C1.65 0 3.3 0 5 0 C5.625 2.375 5.625 2.375 6 5 C4 7 4 7 2.0546875 7.1953125 C0.03645833 7.13020833 -1.98177083 7.06510417 -4 7 C-4 6.01 -4 5.02 -4 4 C-1.69 4.33 0.62 4.66 3 5 C2.2236068 1.9254644 2.2236068 1.9254644 0 0 Z " fill="#F7D7D7" transform="translate(47,21)"/>
<path d="M0 0 C0.33 0 0.66 0 1 0 C3.4797048 11.20295203 3.4797048 11.20295203 3 16 C2.34 16.66 1.68 17.32 1 18 C-0.29283945 12.26302493 -1.37619454 6.89371452 -1 1 C-0.67 0.67 -0.34 0.34 0 0 Z " fill="#5A1511" transform="translate(35,126)"/>
<path d="M0 0 C0.66 0.33 1.32 0.66 2 1 C1.38125 1.70125 0.7625 2.4025 0.125 3.125 C-3.39988929 8.27483825 -3.37147198 14.96282294 -4 21 C-4.33 21 -4.66 21 -5 21 C-5.86140345 5.95415301 -5.86140345 5.95415301 -2.5 2.0625 C-1.675 1.381875 -0.85 0.70125 0 0 Z " fill="#9F2828" transform="translate(61,122)"/>
<path d="M0 0 C0.99 0.33 1.98 0.66 3 1 C2.34 1 1.68 1 1 1 C1 2.98 1 4.96 1 7 C3.97 7.495 3.97 7.495 7 8 C7.33 7.01 7.66 6.02 8 5 C8 6.65 8 8.3 8 10 C5.03 9.67 2.06 9.34 -1 9 C-2.25541557 5.23375329 -1.37061958 3.62811066 0 0 Z " fill="#C85F1F" transform="translate(10,103)"/>
<path d="M0 0 C0.33 0 0.66 0 1 0 C1.33 2.64 1.66 5.28 2 8 C-1.3 8 -4.6 8 -8 8 C-8.33 6.35 -8.66 4.7 -9 3 C-8.34 3.66 -7.68 4.32 -7 5 C-4.42938689 5.64767793 -4.42938689 5.64767793 -2 6 C-1.34 4.02 -0.68 2.04 0 0 Z " fill="#F9E8E8" transform="translate(81,20)"/>
<path d="M0 0 C0.66 0.33 1.32 0.66 2 1 C2 4 2 4 0.42578125 5.68359375 C-0.27160156 6.26238281 -0.96898437 6.84117188 -1.6875 7.4375 C-2.41324219 8.0459375 -3.13898437 8.654375 -3.88671875 9.28125 C-8.92432432 13.37837838 -8.92432432 13.37837838 -11 15 C-10.49226823 10.9472125 -8.57830136 9.46540887 -5.5 6.9375 C-1.90134598 4.0755481 -1.90134598 4.0755481 0 0 Z " fill="#BBB1B1" transform="translate(30,110)"/>
<path d="M0 0 C2.31 0 4.62 0 7 0 C6.35546875 0.38800781 5.7109375 0.77601562 5.046875 1.17578125 C2.79121416 2.83946485 2.79121416 2.83946485 2.390625 5.48046875 C2.34421875 6.37378906 2.2978125 7.26710938 2.25 8.1875 C2.19328125 9.08855469 2.1365625 9.98960938 2.078125 10.91796875 C2.05234375 11.60503906 2.0265625 12.29210938 2 13 C1.34 13 0.68 13 0 13 C0 8.71 0 4.42 0 0 Z " fill="#FDF8F8" transform="translate(29,15)"/>
<path d="M0 0 C1.65 0 3.3 0 5 0 C4.01 0.33 3.02 0.66 2 1 C2.33 2.65 2.66 4.3 3 6 C4.65 6 6.3 6 8 6 C7.67 6.99 7.34 7.98 7 9 C4.69 8.67 2.38 8.34 0 8 C0 5.36 0 2.72 0 0 Z " fill="#C97416" transform="translate(27,119)"/>
<path d="M0 0 C4.62 0 9.24 0 14 0 C14 0.33 14 0.66 14 1 C12.73542969 1.09087891 12.73542969 1.09087891 11.4453125 1.18359375 C10.34960938 1.26738281 9.25390625 1.35117188 8.125 1.4375 C7.03445312 1.51871094 5.94390625 1.59992188 4.8203125 1.68359375 C2.05271029 1.83001703 2.05271029 1.83001703 0 3 C0 2.01 0 1.02 0 0 Z M-3 3 C-2.01 3.33 -1.02 3.66 0 4 C-1.65 5.32 -3.3 6.64 -5 8 C-4.34 6.35 -3.68 4.7 -3 3 Z " fill="#BD2A2A" transform="translate(45,117)"/>
<path d="M0 0 C-0.33 1.32 -0.66 2.64 -1 4 C-1 3.01 -1 2.02 -1 1 C-1.99 1 -2.98 1 -4 1 C-4 1.66 -4 2.32 -4 3 C-5.32 3 -6.64 3 -8 3 C-8 3.99 -8 4.98 -8 6 C-8.66 6 -9.32 6 -10 6 C-9.8125 3.625 -9.8125 3.625 -9 1 C-5.71803757 -0.95143712 -3.5838203 -1.32734085 0 0 Z " fill="#C34735" transform="translate(18,100)"/>
<path d="M0 0 C0.99 0 1.98 0 3 0 C3 3.96 3 7.92 3 12 C2.34 11.67 1.68 11.34 1 11 C0.5859375 8.49609375 0.5859375 8.49609375 0.375 5.4375 C0.30023438 4.42558594 0.22546875 3.41367187 0.1484375 2.37109375 C0.09945313 1.58863281 0.05046875 0.80617187 0 0 Z " fill="#F8DFDF" transform="translate(12,38)"/>
<path d="M0 0 C0.33 0 0.66 0 1 0 C1.18451025 11.52164009 1.18451025 11.52164009 0 17 C-0.33 17 -0.66 17 -1 17 C-1.95595136 12.22024321 -2.23869279 7.85342006 -2 3 C-1.34 2.01 -0.68 1.02 0 0 Z " fill="#952121" transform="translate(58,156)"/>
<path d="M0 0 C0.33 0 0.66 0 1 0 C1.33 1.98 1.66 3.96 2 6 C3.98 6.66 5.96 7.32 8 8 C8 8.33 8 8.66 8 9 C4.625 9.125 4.625 9.125 1 9 C-1 7 -1 7 -1.1875 3.9375 C-1 1 -1 1 0 0 Z " fill="#F6E2E2" transform="translate(87,47)"/>
<path d="M0 0 C0.33 0.66 0.66 1.32 1 2 C-0.07826365 3.27513763 -1.16285519 4.54492569 -2.25 5.8125 C-2.85328125 6.52019531 -3.4565625 7.22789062 -4.078125 7.95703125 C-5.92370398 9.91889671 -7.79945332 11.45669625 -10 13 C-8.48446596 9.52224821 -6.4226544 7.0442016 -3.875 4.25 C-3.15054687 3.45078125 -2.42609375 2.6515625 -1.6796875 1.828125 C-0.84824219 0.92320313 -0.84824219 0.92320313 0 0 Z " fill="#564040" transform="translate(10,123)"/>
<path d="M0 0 C1.98 0.66 3.96 1.32 6 2 C6 3.65 6 5.3 6 7 C5.67 6.01 5.34 5.02 5 4 C2.69 4.33 0.38 4.66 -2 5 C-1.125 1.125 -1.125 1.125 0 0 Z " fill="#B64B37" transform="translate(30,114)"/>
<path d="M0 0 C0.99 0 1.98 0 3 0 C2.67 3.3 2.34 6.6 2 10 C1.01 9.67 0.02 9.34 -1 9 C-0.67 6.03 -0.34 3.06 0 0 Z " fill="#F4CBCB" transform="translate(24,38)"/>
<path d="M0 0 C0.33 0 0.66 0 1 0 C1 2.64 1 5.28 1 8 C1.99 8.33 2.98 8.66 4 9 C2.02 9 0.04 9 -2 9 C-1.125 2.25 -1.125 2.25 0 0 Z " fill="#0E6641" transform="translate(70,111)"/>
<path d="M0 0 C2.64 0 5.28 0 8 0 C8.33 0.66 8.66 1.32 9 2 C8.67 2.99 8.34 3.98 8 5 C6.35 5 4.7 5 3 5 C4.32 4.67 5.64 4.34 7 4 C7 3.34 7 2.68 7 2 C4.69 2 2.38 2 0 2 C0 1.34 0 0.68 0 0 Z " fill="#EFC4C4" transform="translate(58,43)"/>
<path d="M0 0 C0.33 0 0.66 0 1 0 C1.33 2.64 1.66 5.28 2 8 C3.65 8.33 5.3 8.66 7 9 C7 9.66 7 10.32 7 11 C5.00045254 11.04254356 2.99958364 11.04080783 1 11 C0 10 0 10 -0.09765625 7.71484375 C-0.08605469 6.79832031 -0.07445312 5.88179687 -0.0625 4.9375 C-0.05347656 4.01839844 -0.04445312 3.09929688 -0.03515625 2.15234375 C-0.02355469 1.44207031 -0.01195312 0.73179688 0 0 Z " fill="#F9E7E7" transform="translate(61,17)"/>
<path d="M0 0 C2.125 0.375 2.125 0.375 4 1 C2.37660195 2.70884005 0.70680947 4.37446717 -1 6 C-1.66 6 -2.32 6 -3 6 C-2.42655063 3.13275314 -2.1385485 2.1385485 0 0 Z " fill="#982526" transform="translate(79,113)"/>
<path d="M0 0 C1.65 0 3.3 0 5 0 C4.67 1.32 4.34 2.64 4 4 C2.35 4 0.7 4 -1 4 C-0.67 2.68 -0.34 1.36 0 0 Z " fill="#C83636" transform="translate(60,50)"/>
<path d="M0 0 C1.98 0 3.96 0 6 0 C5.67 1.32 5.34 2.64 5 4 C3.35 4 1.7 4 0 4 C0 2.68 0 1.36 0 0 Z " fill="#D23736" transform="translate(74,22)"/>
<path d="M0 0 C-0.53625 0.2475 -1.0725 0.495 -1.625 0.75 C-4.18746595 2.04181958 -4.18746595 2.04181958 -7.125 4.125 C-10 6 -10 6 -12 6 C-11 3 -11 3 -8.8125 1.3125 C-5.63225084 -0.17161628 -3.46785727 -0.24194353 0 0 Z " fill="#4B100E" transform="translate(49,116)"/>
<path d="M0 0 C0.66 0.33 1.32 0.66 2 1 C2 4 2 4 0.25 6.25 C-2 8 -2 8 -4.25 7.75 C-4.8275 7.5025 -5.405 7.255 -6 7 C-6 6.34 -6 5.68 -6 5 C-5.195625 4.731875 -4.39125 4.46375 -3.5625 4.1875 C-2.716875 3.795625 -1.87125 3.40375 -1 3 C-0.67 2.01 -0.34 1.02 0 0 Z " fill="#D68617" transform="translate(42,102)"/>
<path d="M0 0 C0.66 0.66 1.32 1.32 2 2 C4.06874034 2.6425235 4.06874034 2.6425235 6 3 C5.67 3.99 5.34 4.98 5 6 C3.35 5.67 1.7 5.34 0 5 C0 3.35 0 1.7 0 0 Z " fill="#ECB407" transform="translate(29,120)"/>
<path d="M0 0 C2.64 0.33 5.28 0.66 8 1 C8 1.66 8 2.32 8 3 C4.7 3 1.4 3 -2 3 C-1.34 2.01 -0.68 1.02 0 0 Z " fill="#FDFBFB" transform="translate(45,53)"/>
<path d="M0 0 C0.66 0 1.32 0 2 0 C1.875 1.75 1.875 1.75 1 4 C-2.0625 6.25 -2.0625 6.25 -5 8 C-3.63055898 5.05043472 -2.12169591 2.47531189 0 0 Z " fill="#F6DCDC" transform="translate(48,47)"/>
<path d="M0 0 C0.66 0 1.32 0 2 0 C2.33 2.97 2.66 5.94 3 9 C0 6 0 6 -0.1875 2.8125 C-0.125625 1.884375 -0.06375 0.95625 0 0 Z " fill="#A62A2A" transform="translate(42,158)"/>
<path d="M0 0 C1.98 0.66 3.96 1.32 6 2 C6 2.99 6 3.98 6 5 C3.03 4.505 3.03 4.505 0 4 C0 2.68 0 1.36 0 0 Z " fill="#EAAB0B" transform="translate(11,106)"/>
<path d="M0 0 C0.66 0.99 1.32 1.98 2 3 C4.05925139 3.72382467 4.05925139 3.72382467 6 4 C6 4.66 6 5.32 6 6 C4.02 6 2.04 6 0 6 C-1.125 2.25 -1.125 2.25 0 0 Z " fill="#F8E4E4" transform="translate(91,22)"/>
<path d="M0 0 C2.33944736 0.28730055 4.6739143 0.61936779 7 1 C7 1.33 7 1.66 7 2 C5.02 2 3.04 2 1 2 C0.67 2.99 0.34 3.98 0 5 C-0.99 5.495 -0.99 5.495 -2 6 C-1.125 1.125 -1.125 1.125 0 0 Z " fill="#EFB9B9" transform="translate(73,20)"/>
</svg>
